<svg width="140" height="140" viewBox="0 0 140 140" fill="none" xmlns="http://www.w3.org/2000/svg">
<rect width="140" height="140" rx="70" fill="#1A2638"/>
<path fill-rule="evenodd" clip-rule="evenodd" d="M82 100C82 105.523 77.5228 110 72 110H52V90H72C77.5228 90 82 94.4772 82 100ZM22 80C22 63.4315 35.4314 50 52 50H72C77.5228 50 82 54.4772 82 60C82 65.5228 77.5228 70 72 70H52C46.4772 70 42 74.4772 42 80C42 85.5228 46.4771 90 52 90V110C35.4314 110 22 96.5685 22 80Z" fill="#B9ED96"/>
<path fill-rule="evenodd" clip-rule="evenodd" d="M58.0001 40C58.0001 34.4772 62.4772 30 68.0001 30H88.0001V50H68.0001C62.4772 50 58.0001 45.5228 58.0001 40ZM118 60C118 76.5685 104.569 90 88.0001 90H68.0001C62.4772 90 58.0001 85.5228 58.0001 80C58.0001 74.4772 62.4772 70 68.0001 70H88.0001C93.5229 70 98.0001 65.5228 98.0001 60C98.0001 54.4772 93.5229 50 88.0001 50V30C104.569 30 118 43.4315 118 60Z" fill="#7FDD40"/>
</svg>
